<svg width="16" height="16" xmlns="http://www.w3.org/2000/svg" viewBox="0 0 508.416 508.416"><path fill="#555555" d="M 285.257 78.586 L 317.115 212.392 L 346.299 205.443 L 307.706 43.35 L 108.292 84.306 L 88.812 48.593 L 288.907 1.298 C 314.65 -4.788 340.937 11.11 347.506 36.732 L 354.591 64.363 L 394.116 219.17 C 399.855 241.651 394.984 265.054 380.751 283.378 C 366.518 301.701 345.048 312.21 321.846 312.21 L 224.272 312.21 L 133.217 253.412 L 133.033 253.291 C 114.917 241.213 104.102 221.004 104.102 199.232 C 104.102 184.262 109.19 170.461 117.728 159.462 C 103.999 156.108 90.695 151.029 78.215 144.325 L 73.4 141.739 C 65.27 137.372 57.62 132.361 50.489 126.803 Z" transform="matrix(-1, 0, 0, -1, 446.958466, 312.20981)"></path><path fill="#555555" d="M 423.988 210.717 L 443.008 245.587 L 390.058 256.462 C 381.839 246.373 374.909 235.335 369.396 223.622 Z" transform="matrix(-1, 0, 0, -1, 812.403992, 467.179001)"></path><path fill="#555555" d="M 430.404 474.345 C 423.98 464.351 415.329 455.867 404.885 449.553 C 392.424 442.018 378.417 438.146 364.191 438.146 C 358.107 438.146 351.982 438.854 345.921 440.287 L 57.686 508.416 C 54.868 497.259 53.252 485.735 52.988 474.011 C 52.96 472.786 52.946 471.561 52.946 470.333 C 52.946 423.712 72.996 379.282 107.956 348.435 L 109.338 347.216 C 127.97 330.776 149.936 318.965 173.497 312.441 L 173.497 272.233 L 188.497 272.233 L 418.452 272.233 L 433.45 271.978 L 433.571 279.131 C 464.776 335.691 466.101 403.511 436.945 461.367 Z" transform="matrix(-1, 0, 0, -1, 510.873688, 780.393982)"></path></svg>